<svg width="57" height="40" viewBox="0 0 57 40" fill="none" xmlns="http://www.w3.org/2000/svg">
<path d="M5.66667 40L13.3333 26.6667C9.66667 26.6667 6.52778 25.3611 3.91667 22.75C1.30556 20.1389 0 17 0 13.3333C0 9.66667 1.30556 6.52778 3.91667 3.91667C6.52778 1.30556 9.66667 0 13.3333 0C17 0 20.1389 1.30556 22.75 3.91667C25.3611 6.52778 26.6667 9.66667 26.6667 13.3333C26.6667 14.6111 26.5139 15.7917 26.2083 16.875C25.9028 17.9583 25.4444 19 24.8333 20L13.3333 40H5.66667ZM35.6667 40L43.3333 26.6667C39.6667 26.6667 36.5278 25.3611 33.9167 22.75C31.3056 20.1389 30 17 30 13.3333C30 9.66667 31.3056 6.52778 33.9167 3.91667C36.5278 1.30556 39.6667 0 43.3333 0C47 0 50.1389 1.30556 52.75 3.91667C55.3611 6.52778 56.6667 9.66667 56.6667 13.3333C56.6667 14.6111 56.5139 15.7917 56.2083 16.875C55.9028 17.9583 55.4444 19 54.8333 20L43.3333 40H35.6667ZM13.3333 18.3333C14.7222 18.3333 15.9028 17.8472 16.875 16.875C17.8472 15.9028 18.3333 14.7222 18.3333 13.3333C18.3333 11.9444 17.8472 10.7639 16.875 9.79167C15.9028 8.81944 14.7222 8.33333 13.3333 8.33333C11.9444 8.33333 10.7639 8.81944 9.79167 9.79167C8.81944 10.7639 8.33333 11.9444 8.33333 13.3333C8.33333 14.7222 8.81944 15.9028 9.79167 16.875C10.7639 17.8472 11.9444 18.3333 13.3333 18.3333ZM43.3333 18.3333C44.7222 18.3333 45.9028 17.8472 46.875 16.875C47.8472 15.9028 48.3333 14.7222 48.3333 13.3333C48.3333 11.9444 47.8472 10.7639 46.875 9.79167C45.9028 8.81944 44.7222 8.33333 43.3333 8.33333C41.9444 8.33333 40.7639 8.81944 39.7917 9.79167C38.8194 10.7639 38.3333 11.9444 38.3333 13.3333C38.3333 14.7222 38.8194 15.9028 39.7917 16.875C40.7639 17.8472 41.9444 18.3333 43.3333 18.3333Z" fill="#5B600D" opacity="0.1"/>
</svg>
