<svg width="36" height="40" viewBox="0 0 36 40" fill="none" xmlns="http://www.w3.org/2000/svg">
<path d="M26 12C25.1667 12 24.4583 11.7083 23.875 11.125C23.2917 10.5417 23 9.83333 23 9C23 8.43333 23.2833 7.68333 23.85 6.75C24.4167 5.81667 25.1333 4.9 26 4C26.8667 4.9 27.5833 5.81667 28.15 6.75C28.7167 7.68333 29 8.43333 29 9C29 9.83333 28.7083 10.5417 28.125 11.125C27.5417 11.7083 26.8333 12 26 12ZM31 26C29.6 26 28.4167 25.5167 27.45 24.55C26.4833 23.5833 26 22.4 26 21C26 19.8333 26.5167 18.3917 27.55 16.675C28.5833 14.9583 29.7333 13.4 31 12C32.2667 13.4 33.4167 14.9583 34.45 16.675C35.4833 18.3917 36 19.8333 36 21C36 22.4 35.5167 23.5833 34.55 24.55C33.5833 25.5167 32.4 26 31 26ZM10 32H14V28H18V24H14V20H10V24H6V28H10V32ZM4 40C2.9 40 1.95833 39.6083 1.175 38.825C0.391667 38.0417 0 37.1 0 36V20C0 17 0.95 14.4 2.85 12.2C4.75 10 7.13333 8.66667 10 8.2V4H6V0H18C19.1333 0 20.2 0.175 21.2 0.525C22.2 0.875 23.1333 1.36667 24 2L21.1 4.9C20.6333 4.63333 20.1417 4.41667 19.625 4.25C19.1083 4.08333 18.5667 4 18 4H14V8.2C16.8667 8.66667 19.25 10 21.15 12.2C23.05 14.4 24 17 24 20V36C24 37.1 23.6083 38.0417 22.825 38.825C22.0417 39.6083 21.1 40 20 40H4Z" fill="#4F54B4"/>
</svg>
