<svg width="30" height="30" viewBox="0 0 30 30" fill="none" xmlns="http://www.w3.org/2000/svg">
<path d="M15 25C17.7778 25 20.1389 24.0278 22.0833 22.0833C24.0278 20.1389 25 17.7778 25 15C25 12.2222 24.0278 9.86111 22.0833 7.91667C20.1389 5.97222 17.7778 5 15 5C12.2222 5 9.86111 5.97222 7.91667 7.91667C5.97222 9.86111 5 12.2222 5 15C5 17.7778 5.97222 20.1389 7.91667 22.0833C9.86111 24.0278 12.2222 25 15 25ZM15 21.6667C14.1944 21.6667 13.4167 21.5208 12.6667 21.2292C11.9167 20.9375 11.2361 20.5278 10.625 20H19.375C18.7639 20.5278 18.0833 20.9375 17.3333 21.2292C16.5833 21.5208 15.8056 21.6667 15 21.6667ZM9.25 18.3333C9.02778 17.9444 8.84722 17.5417 8.70833 17.125C8.56944 16.7083 8.47222 16.2778 8.41667 15.8333H21.5833C21.5278 16.2778 21.4306 16.7083 21.2917 17.125C21.1528 17.5417 20.9722 17.9444 20.75 18.3333H9.25ZM8.41667 14.1667C8.47222 13.7222 8.56944 13.2917 8.70833 12.875C8.84722 12.4583 9.02778 12.0556 9.25 11.6667H20.75C20.9722 12.0556 21.1528 12.4583 21.2917 12.875C21.4306 13.2917 21.5278 13.7222 21.5833 14.1667H8.41667ZM10.625 10C11.2361 9.47222 11.9167 9.0625 12.6667 8.77083C13.4167 8.47917 14.1944 8.33333 15 8.33333C15.8056 8.33333 16.5833 8.47917 17.3333 8.77083C18.0833 9.0625 18.7639 9.47222 19.375 10H10.625ZM3.33333 30C2.41667 30 1.63194 29.6736 0.979167 29.0208C0.326389 28.3681 0 27.5833 0 26.6667V3.33333C0 2.41667 0.326389 1.63194 0.979167 0.979167C1.63194 0.326389 2.41667 0 3.33333 0H26.6667C27.5833 0 28.3681 0.326389 29.0208 0.979167C29.6736 1.63194 30 2.41667 30 3.33333V26.6667C30 27.5833 29.6736 28.3681 29.0208 29.0208C28.3681 29.6736 27.5833 30 26.6667 30H3.33333ZM3.33333 26.6667H26.6667V3.33333H3.33333V26.6667ZM3.33333 3.33333V26.6667V3.33333Z" fill="#006B32"/>
</svg>
