<svg width="37" height="37" viewBox="0 0 37 37" fill="none" xmlns="http://www.w3.org/2000/svg">
<path d="M3.33333 36.6667V29.6667C2.36111 29.3333 1.5625 28.7431 0.9375 27.8958C0.3125 27.0486 0 26.0833 0 25V21.6667H10V25C10 26.0833 9.6875 27.0486 9.0625 27.8958C8.4375 28.7431 7.63889 29.3333 6.66667 29.6667V36.6667H3.33333ZM16.6667 36.6667V29.6667C15.6944 29.3333 14.8958 28.7431 14.2708 27.8958C13.6458 27.0486 13.3333 26.0833 13.3333 25V21.6667H23.3333V25C23.3333 26.0833 23.0208 27.0486 22.3958 27.8958C21.7708 28.7431 20.9722 29.3333 20 29.6667V36.6667H16.6667ZM30 36.6667V29.6667C29.0278 29.3333 28.2292 28.7431 27.6042 27.8958C26.9792 27.0486 26.6667 26.0833 26.6667 25V21.6667H36.6667V25C36.6667 26.0833 36.3542 27.0486 35.7292 27.8958C35.1042 28.7431 34.3056 29.3333 33.3333 29.6667V36.6667H30ZM0 18.3333V8.33333H3.33333V1.66667C3.33333 1.19444 3.49306 0.798611 3.8125 0.479167C4.13194 0.159722 4.52778 0 5 0C5.47222 0 5.86806 0.159722 6.1875 0.479167C6.50694 0.798611 6.66667 1.19444 6.66667 1.66667V8.33333H10V18.3333H0ZM13.3333 18.3333V8.33333H16.6667V1.66667C16.6667 1.19444 16.8264 0.798611 17.1458 0.479167C17.4653 0.159722 17.8611 0 18.3333 0C18.8056 0 19.2014 0.159722 19.5208 0.479167C19.8403 0.798611 20 1.19444 20 1.66667V8.33333H23.3333V18.3333H13.3333ZM26.6667 18.3333V8.33333H30V1.66667C30 1.19444 30.1597 0.798611 30.4792 0.479167C30.7986 0.159722 31.1944 0 31.6667 0C32.1389 0 32.5347 0.159722 32.8542 0.479167C33.1736 0.798611 33.3333 1.19444 33.3333 1.66667V8.33333H36.6667V18.3333H26.6667Z" fill="#006B32"/>
</svg>
