<svg width="24" height="32" viewBox="0 0 24 32" fill="none" xmlns="http://www.w3.org/2000/svg">
<path d="M0 31.6667V28.3333H8.33333V25C6.02778 25 4.0625 24.1875 2.4375 22.5625C0.8125 20.9375 0 18.9722 0 16.6667C0 14.9722 0.465278 13.4306 1.39583 12.0417C2.32639 10.6528 3.58333 9.63889 5.16667 9C5.38889 8.05556 5.88194 7.29167 6.64583 6.70833C7.40972 6.125 8.27778 5.83333 9.25 5.83333L8.33333 3.25L9.91667 2.66667L9.33333 1.16667L12.5 0L13 1.58333L14.5833 1L19.1667 13.5L17.5833 14.0833L18.1667 15.6667L15 16.8333L14.5 15.25L12.9167 15.8333L11.9167 13.0833C11.5 13.4722 11.0208 13.7639 10.4792 13.9583C9.9375 14.1528 9.38889 14.2222 8.83333 14.1667C8.22222 14.1111 7.65278 13.9236 7.125 13.6042C6.59722 13.2847 6.13889 12.8889 5.75 12.4167C5 12.8611 4.40972 13.4583 3.97917 14.2083C3.54861 14.9583 3.33333 15.7778 3.33333 16.6667C3.33333 18.0556 3.81944 19.2361 4.79167 20.2083C5.76389 21.1806 6.94444 21.6667 8.33333 21.6667H21.6667V25H13.3333V28.3333H23.3333V31.6667H0ZM14.4167 12.5833L15.9167 12L13.0833 4.16667L11.5 4.75L14.4167 12.5833ZM9.16667 11.6667C9.63889 11.6667 10.0347 11.5069 10.3542 11.1875C10.6736 10.8681 10.8333 10.4722 10.8333 10C10.8333 9.52778 10.6736 9.13194 10.3542 8.8125C10.0347 8.49306 9.63889 8.33333 9.16667 8.33333C8.69444 8.33333 8.29861 8.49306 7.97917 8.8125C7.65972 9.13194 7.5 9.52778 7.5 10C7.5 10.4722 7.65972 10.8681 7.97917 11.1875C8.29861 11.5069 8.69444 11.6667 9.16667 11.6667Z" fill="#4F54B4"/>
</svg>
