<svg width="30" height="37" viewBox="0 0 30 37" fill="none" xmlns="http://www.w3.org/2000/svg">
<path d="M0 36.6667V25C0 22.6944 0.8125 20.7292 2.4375 19.1042C4.0625 17.4792 6.02778 16.6667 8.33333 16.6667H10V3.33333C10 2.41667 10.3264 1.63194 10.9792 0.979167C11.6319 0.326389 12.4167 0 13.3333 0H16.6667C17.5833 0 18.3681 0.326389 19.0208 0.979167C19.6736 1.63194 20 2.41667 20 3.33333V16.6667H21.6667C23.9722 16.6667 25.9375 17.4792 27.5625 19.1042C29.1875 20.7292 30 22.6944 30 25V36.6667H0ZM3.33333 33.3333H6.66667V28.3333C6.66667 27.8611 6.82639 27.4653 7.14583 27.1458C7.46528 26.8264 7.86111 26.6667 8.33333 26.6667C8.80556 26.6667 9.20139 26.8264 9.52083 27.1458C9.84028 27.4653 10 27.8611 10 28.3333V33.3333H13.3333V28.3333C13.3333 27.8611 13.4931 27.4653 13.8125 27.1458C14.1319 26.8264 14.5278 26.6667 15 26.6667C15.4722 26.6667 15.8681 26.8264 16.1875 27.1458C16.5069 27.4653 16.6667 27.8611 16.6667 28.3333V33.3333H20V28.3333C20 27.8611 20.1597 27.4653 20.4792 27.1458C20.7986 26.8264 21.1944 26.6667 21.6667 26.6667C22.1389 26.6667 22.5347 26.8264 22.8542 27.1458C23.1736 27.4653 23.3333 27.8611 23.3333 28.3333V33.3333H26.6667V25C26.6667 23.6111 26.1806 22.4306 25.2083 21.4583C24.2361 20.4861 23.0556 20 21.6667 20H8.33333C6.94444 20 5.76389 20.4861 4.79167 21.4583C3.81944 22.4306 3.33333 23.6111 3.33333 25V33.3333ZM16.6667 16.6667V3.33333H13.3333V16.6667H16.6667ZM16.6667 16.6667H13.3333H16.6667Z" fill="#5B600D"/>
</svg>
