<svg width="34" height="30" viewBox="0 0 34 30" fill="none" xmlns="http://www.w3.org/2000/svg">
<path d="M11.6667 30V25H0V21.6667H11.6667C12.5833 21.6667 13.3681 21.9931 14.0208 22.6458C14.6736 23.2986 15 24.0833 15 25V30H11.6667ZM18.3333 30V25C18.3333 24.0833 18.6597 23.2986 19.3125 22.6458C19.9653 21.9931 20.75 21.6667 21.6667 21.6667H33.3333V25H21.6667V30H18.3333ZM6.66667 20C5.27778 20 4.09722 19.5139 3.125 18.5417C2.15278 17.5694 1.66667 16.3889 1.66667 15V8.33333H31.6667V15C31.6667 16.3889 31.1806 17.5694 30.2083 18.5417C29.2361 19.5139 28.0556 20 26.6667 20H6.66667ZM1.66667 6.66667V3.33333H11.6667V1.66667C11.6667 1.19444 11.8264 0.798611 12.1458 0.479167C12.4653 0.159722 12.8611 0 13.3333 0H20C20.4722 0 20.8681 0.159722 21.1875 0.479167C21.5069 0.798611 21.6667 1.19444 21.6667 1.66667V3.33333H31.6667V6.66667H1.66667Z" fill="#006B32"/>
</svg>
