<svg width="37" height="30" viewBox="0 0 37 30" fill="none" xmlns="http://www.w3.org/2000/svg">
<path d="M8.125 18.2917V13.2917L5 15L0 6.33333L11 0H13.125C13.5694 1.33333 14.0972 2.5 14.7083 3.5C15.3194 4.5 16.4583 5 18.125 5C19.7917 5 20.9306 4.5 21.5417 3.5C22.1528 2.5 22.6806 1.33333 23.125 0H25.25L36.2083 6.375L31.25 15L28.125 13.2917V21.2917L25.5 23.5833C25.3056 23.75 25.0833 23.8819 24.8333 23.9792C24.5833 24.0764 24.3333 24.125 24.0833 24.125C23.9167 24.125 23.7222 24.0694 23.5 23.9583C23.2778 23.8472 23.0556 23.7083 22.8333 23.5417L18.4167 19.75C17.5278 18.9722 16.5278 18.4028 15.4167 18.0417C14.3056 17.6806 13.1806 17.5 12.0417 17.5C11.375 17.5 10.7153 17.5625 10.0625 17.6875C9.40972 17.8125 8.76389 18.0139 8.125 18.2917ZM5.875 27.2917L3.70833 24.75L7.33333 21.6667C7.97222 21.1111 8.70139 20.6875 9.52083 20.3958C10.3403 20.1042 11.1944 19.9583 12.0833 19.9583C12.9722 19.9583 13.8194 20.1042 14.625 20.3958C15.4306 20.6875 16.1528 21.1111 16.7917 21.6667L21.625 25.7917C21.9583 26.0694 22.3542 26.2847 22.8125 26.4375C23.2708 26.5903 23.7361 26.6667 24.2083 26.6667C24.7083 26.6667 25.1736 26.5972 25.6042 26.4583C26.0347 26.3194 26.4167 26.0972 26.75 25.7917L30.375 22.6667L32.5417 25.25L28.9167 28.3333C28.2778 28.8889 27.5556 29.3056 26.75 29.5833C25.9444 29.8611 25.0972 30 24.2083 30C23.3194 30 22.4653 29.8611 21.6458 29.5833C20.8264 29.3056 20.0972 28.8889 19.4583 28.3333L14.625 24.2083C14.2917 23.9306 13.9097 23.7153 13.4792 23.5625C13.0486 23.4097 12.5833 23.3333 12.0833 23.3333C11.6111 23.3333 11.1458 23.4097 10.6875 23.5625C10.2292 23.7153 9.83333 23.9306 9.5 24.2083L5.875 27.2917Z" fill="#006B32"/>
</svg>
