<svg width="37" height="38" viewBox="0 0 37 38" fill="none" xmlns="http://www.w3.org/2000/svg">
<path d="M2 37.0118V31.0118H8.2L3.1 14.3118C2.2 13.8118 1.45833 13.0784 0.875 12.1118C0.291667 11.1451 0 10.1118 0 9.01176C0 7.3451 0.583333 5.92843 1.75 4.76176C2.91667 3.5951 4.33333 3.01176 6 3.01176C7.3 3.01176 8.45833 3.38676 9.475 4.13676C10.4917 4.88676 11.2 5.8451 11.6 7.01176H18V5.01176C18 4.4451 18.1917 3.9701 18.575 3.58676C18.9583 3.20343 19.4333 3.01176 20 3.01176C20.3 3.01176 20.5917 3.07843 20.875 3.21176C21.1583 3.3451 21.4 3.5451 21.6 3.81176L25 0.611765C25.3 0.311765 25.6583 0.120098 26.075 0.0367647C26.4917 -0.0465686 26.9 0.0117647 27.3 0.211765L35.1 3.81176C35.5 4.01176 35.775 4.30343 35.925 4.68676C36.075 5.0701 36.0667 5.4451 35.9 5.81176C35.7 6.21176 35.4083 6.4701 35.025 6.58676C34.6417 6.70343 34.2667 6.67843 33.9 6.51176L26.7 3.21176L22 7.61176V10.4118L26.7 14.7118L33.9 11.4118C34.2667 11.2451 34.65 11.2284 35.05 11.3618C35.45 11.4951 35.7333 11.7451 35.9 12.1118C36.1 12.5118 36.1167 12.8951 35.95 13.2618C35.7833 13.6284 35.5 13.9118 35.1 14.1118L27.3 17.8118C26.9 18.0118 26.4917 18.0701 26.075 17.9868C25.6583 17.9034 25.3 17.7118 25 17.4118L21.6 14.2118C21.4 14.4118 21.1583 14.5951 20.875 14.7618C20.5917 14.9284 20.3 15.0118 20 15.0118C19.4333 15.0118 18.9583 14.8201 18.575 14.4368C18.1917 14.0534 18 13.5784 18 13.0118V11.0118H11.6C11.5 11.2784 11.3917 11.5284 11.275 11.7618C11.1583 11.9951 11 12.2451 10.8 12.5118L20.8 31.0118H28V37.0118H2ZM6 11.0118C6.56667 11.0118 7.04167 10.8201 7.425 10.4368C7.80833 10.0534 8 9.57843 8 9.01176C8 8.4451 7.80833 7.9701 7.425 7.58676C7.04167 7.20343 6.56667 7.01176 6 7.01176C5.43333 7.01176 4.95833 7.20343 4.575 7.58676C4.19167 7.9701 4 8.4451 4 9.01176C4 9.57843 4.19167 10.0534 4.575 10.4368C4.95833 10.8201 5.43333 11.0118 6 11.0118ZM12.3 31.0118H16.2L7.6 15.0118C7.6 15.0118 7.56667 15.0118 7.5 15.0118C7.43333 15.0118 7.4 15.0118 7.4 15.0118L12.3 31.0118Z" fill="#4F54B4"/>
</svg>
