<svg width="27" height="34" viewBox="0 0 27 34" fill="none" xmlns="http://www.w3.org/2000/svg">
<path d="M13.7917 28.3333C14.125 28.3056 14.4097 28.1736 14.6458 27.9375C14.8819 27.7014 15 27.4167 15 27.0833C15 26.6944 14.875 26.3819 14.625 26.1458C14.375 25.9097 14.0556 25.8056 13.6667 25.8333C12.5278 25.9167 11.3194 25.6042 10.0417 24.8958C8.76389 24.1875 7.95833 22.9028 7.625 21.0417C7.56944 20.7361 7.42361 20.4861 7.1875 20.2917C6.95139 20.0972 6.68056 20 6.375 20C5.98611 20 5.66667 20.1458 5.41667 20.4375C5.16667 20.7292 5.08333 21.0694 5.16667 21.4583C5.63889 23.9861 6.75 25.7917 8.5 26.875C10.25 27.9583 12.0139 28.4444 13.7917 28.3333ZM13.3333 33.3333C9.52778 33.3333 6.35417 32.0278 3.8125 29.4167C1.27083 26.8056 0 23.5556 0 19.6667C0 16.8889 1.10417 13.8681 3.3125 10.6042C5.52083 7.34028 8.86111 3.80556 13.3333 0C17.8056 3.80556 21.1458 7.34028 23.3542 10.6042C25.5625 13.8681 26.6667 16.8889 26.6667 19.6667C26.6667 23.5556 25.3958 26.8056 22.8542 29.4167C20.3125 32.0278 17.1389 33.3333 13.3333 33.3333Z" fill="#006B32"/>
</svg>
