<svg width="34" height="30" viewBox="0 0 34 30" fill="none" xmlns="http://www.w3.org/2000/svg">
<path d="M0 30V5C0 3.61111 0.486111 2.43056 1.45833 1.45833C2.43056 0.486111 3.61111 0 5 0H11.6667C13.0556 0 14.2361 0.486111 15.2083 1.45833C16.1806 2.43056 16.6667 3.61111 16.6667 5V8.33333H11.6667C10.75 8.33333 9.96528 8.65972 9.3125 9.3125C8.65972 9.96528 8.33333 10.75 8.33333 11.6667V20C8.33333 20.9167 8.65972 21.7014 9.3125 22.3542C9.96528 23.0069 10.75 23.3333 11.6667 23.3333H16.6667V30H0ZM23.7083 24.125C22.9861 24.125 22.2708 24.0278 21.5625 23.8333C20.8542 23.6389 20.1667 23.3889 19.5 23.0833L20.5417 19.9167C21.1528 20.1944 21.7222 20.4097 22.25 20.5625C22.7778 20.7153 23.2639 20.7917 23.7083 20.7917C24.0417 20.7917 24.375 20.7431 24.7083 20.6458C25.0417 20.5486 25.3889 20.375 25.75 20.125C26.3889 19.6806 27.0694 19.3681 27.7917 19.1875C28.5139 19.0069 29.1528 18.9167 29.7083 18.9167C30.4028 18.9167 31.1111 19.0139 31.8333 19.2083C32.5556 19.4028 33.2361 19.6389 33.875 19.9167L32.8333 23.0833C32.1111 22.8333 31.4931 22.6319 30.9792 22.4792C30.4653 22.3264 30.0278 22.25 29.6667 22.25C29.2778 22.25 28.8819 22.3125 28.4792 22.4375C28.0764 22.5625 27.6806 22.7778 27.2917 23.0833C26.8194 23.4167 26.2708 23.6736 25.6458 23.8542C25.0208 24.0347 24.375 24.125 23.7083 24.125ZM16.6667 20H11.6667V11.6667H16.6667V20ZM23.6667 17.625C22.9444 17.625 22.2361 17.5278 21.5417 17.3333C20.8472 17.1389 20.1667 16.8889 19.5 16.5833L20.5417 13.4167C21.0972 13.6667 21.6458 13.875 22.1875 14.0417C22.7292 14.2083 23.2361 14.2917 23.7083 14.2917C24.0417 14.2917 24.375 14.2361 24.7083 14.125C25.0417 14.0139 25.3889 13.8472 25.75 13.625C26.4167 13.1528 27.0833 12.8333 27.75 12.6667C28.4167 12.5 29.0556 12.4167 29.6667 12.4167C30.3611 12.4167 31.0764 12.5069 31.8125 12.6875C32.5486 12.8681 33.2361 13.1111 33.875 13.4167L32.8333 16.5833C32.1944 16.3611 31.6042 16.1667 31.0625 16C30.5208 15.8333 30.0556 15.75 29.6667 15.75C29.3333 15.75 28.9653 15.8125 28.5625 15.9375C28.1597 16.0625 27.7361 16.2778 27.2917 16.5833C26.7083 16.9722 26.1181 17.2431 25.5208 17.3958C24.9236 17.5486 24.3056 17.625 23.6667 17.625ZM23.7083 11.125C22.9861 11.125 22.2639 11.0278 21.5417 10.8333C20.8194 10.6389 20.1389 10.3889 19.5 10.0833L20.5417 6.91667C21.2639 7.22222 21.875 7.44444 22.375 7.58333C22.875 7.72222 23.3194 7.79167 23.7083 7.79167C24.0417 7.79167 24.375 7.74306 24.7083 7.64583C25.0417 7.54861 25.3889 7.375 25.75 7.125C26.4444 6.65278 27.1181 6.33333 27.7708 6.16667C28.4236 6 29.0556 5.91667 29.6667 5.91667C30.3611 5.91667 31.0556 6.00694 31.75 6.1875C32.4444 6.36806 33.1528 6.61111 33.875 6.91667L32.8333 10.0833C32.1111 9.83333 31.5 9.63194 31 9.47917C30.5 9.32639 30.0556 9.25 29.6667 9.25C29.3056 9.25 28.9375 9.30556 28.5625 9.41667C28.1875 9.52778 27.7639 9.75 27.2917 10.0833C26.7917 10.4444 26.2292 10.7083 25.6042 10.875C24.9792 11.0417 24.3472 11.125 23.7083 11.125Z" fill="#006B32"/>
</svg>
